<?xml version="1.0" encoding="UTF-8" standalone="no"?>
<svg
   enable-background="new 0 0 32 32"
   height="72"
   id="Layer_1"
   version="1.0"
   viewBox="0 0 72 72"
   width="72"
   xml:space="preserve"
   sodipodi:docname="github-logo.svg"
   inkscape:version="1.1.2 (1:1.1+202202050950+0a00cf5339)"
   xmlns:inkscape="http://www.inkscape.org/namespaces/inkscape"
   xmlns:sodipodi="http://sodipodi.sourceforge.net/DTD/sodipodi-0.dtd"
   xmlns="http://www.w3.org/2000/svg"
   xmlns:svg="http://www.w3.org/2000/svg"><defs
     id="defs19" /><sodipodi:namedview
     id="namedview17"
     pagecolor="#505050"
     bordercolor="#ffffff"
     borderopacity="1"
     inkscape:pageshadow="0"
     inkscape:pageopacity="0"
     inkscape:pagecheckerboard="1"
     showgrid="false"
     width="72px"
     inkscape:zoom="8"
     inkscape:cx="32.1875"
     inkscape:cy="34.375"
     inkscape:window-width="1920"
     inkscape:window-height="1015"
     inkscape:window-x="0"
     inkscape:window-y="0"
     inkscape:window-maximized="1"
     inkscape:current-layer="Layer_1" /><g
     id="g4" /><g
     id="g6" /><g
     id="g8" /><g
     id="g10" /><g
     id="g12" /><g
     id="g14" /><path
     style="opacity:1;fill:#242429;stroke-width:0.0870364;fill-opacity:1"
     d="M 23.482168,71.524447 C 18.504728,69.586821 14.460988,66.933275 10.729515,63.156016 7.7542741,60.144266 5.6095792,57.109439 3.7139469,53.228714 0.24408299,46.125226 -0.8516033,37.705044 0.66872334,29.826617 1.9722123,23.071854 4.8724336,17.204917 9.5191831,11.92279 11.080616,10.14785 13.3186,8.1405703 15.380709,6.665499 24.296143,0.28810347 35.386952,-1.6242372 45.858452,1.4103564 c 4.567824,1.3237355 9.012209,3.6934136 12.769734,6.8086293 4.085997,3.3875413 7.592253,7.9296763 9.828836,12.7326453 7.28454,15.643241 3.071443,34.20421 -10.205719,44.96171 -2.918956,2.365013 -6.156401,4.230121 -9.755988,5.620476 -1.570348,0.606552 -2.272296,0.618875 -2.885723,0.05065 C 45.00655,71.025866 45.014321,71.116755 45.0124,64.600321 45.011411,61.248828 44.97476,58.562586 44.92516,58.204786 44.670547,56.36862 43.96749,54.69415 42.981165,53.574781 L 42.700542,53.256306 44.03357,53.05634 c 6.607722,-0.991161 10.817787,-3.64971 13.057516,-8.245492 1.334301,-2.737901 1.879237,-5.491245 1.884204,-9.520129 0.0027,-2.163512 -0.01014,-2.353392 -0.229557,-3.401992 -0.498583,-2.382791 -1.509705,-4.552189 -2.915451,-6.2552 l -0.467205,-0.566002 0.195189,-0.655756 c 0.376119,-1.263602 0.483068,-2.249802 0.433637,-3.998613 -0.04904,-1.734963 -0.196339,-2.650738 -0.670438,-4.168224 -0.354326,-1.134121 -0.345794,-1.127857 -1.450486,-1.065133 -2.007447,0.113986 -4.378262,1.02342 -7.223715,2.771002 -0.590947,0.362939 -1.192849,0.750665 -1.337562,0.861615 l -0.263115,0.201723 -0.85431,-0.213738 c -2.855926,-0.714536 -4.944706,-0.955304 -8.246515,-0.950563 -3.204518,0.0046 -5.471055,0.265685 -7.991493,0.920533 l -0.947912,0.246282 -0.773603,-0.506976 c -1.806477,-1.183867 -3.844331,-2.242565 -5.27028,-2.737996 -1.39629,-0.485131 -3.123028,-0.742915 -3.77541,-0.563634 -0.156629,0.04305 -0.247196,0.22714 -0.488966,0.993929 -0.570508,1.809418 -0.685787,2.576307 -0.690155,4.591216 -0.0041,1.886833 0.08654,2.606347 0.473624,3.759873 l 0.162398,0.483948 -0.442595,0.544052 c -0.654926,0.805052 -1.488742,2.146822 -1.910766,3.074784 -1.133367,2.492093 -1.515044,5.108733 -1.251966,8.583006 0.496821,6.561081 2.895791,10.896966 7.463606,13.489676 2.011491,1.14173 5.432674,2.178407 8.12102,2.460807 0.316236,0.03323 0.574973,0.07697 0.574973,0.09723 0,0.02033 -0.194242,0.282483 -0.431663,0.582715 -0.237415,0.300229 -0.604689,0.902803 -0.816161,1.339053 -0.357573,0.737635 -0.815117,2.273225 -0.815117,2.735656 0,0.167385 -0.09803,0.239731 -0.581734,0.429239 -1.273912,0.499108 -2.214585,0.68878 -3.458192,0.697293 -1.596474,0.01086 -2.609091,-0.277802 -3.822406,-1.089906 -0.902048,-0.603763 -1.663612,-1.437564 -2.491857,-2.728215 -0.388823,-0.605901 -0.912579,-1.332186 -1.163905,-1.613964 -1.346218,-1.509349 -3.272031,-2.436991 -4.844339,-2.333463 -1.0028289,0.06604 -1.4706786,0.404423 -1.3039239,0.943119 0.086608,0.279813 0.7476819,0.913298 1.4393149,1.379273 1.609714,1.08451 2.79249,2.682561 3.848683,5.199956 0.596403,1.421496 1.098247,2.209061 1.911573,2.999911 1.486242,1.445169 3.156667,2.179767 5.505455,2.421123 1.263519,0.129837 3.410898,-0.02348 4.594364,-0.328034 l 0.195054,-0.05019 v 3.177932 c 0,3.566493 -0.03782,3.91523 -0.478886,4.415794 -0.607462,0.689399 -1.348592,0.704356 -3.002326,0.06059 z"
     id="path1389" /></svg>
