<?xml version="1.0" encoding="UTF-8" standalone="no"?>
<svg
   height="72"
   viewBox="0 0 72 72"
   width="72"
   version="1.1"
   id="svg8"
   sodipodi:docname="mail-logo.svg"
   inkscape:version="1.1.2 (1:1.1+202202050950+0a00cf5339)"
   xmlns:inkscape="http://www.inkscape.org/namespaces/inkscape"
   xmlns:sodipodi="http://sodipodi.sourceforge.net/DTD/sodipodi-0.dtd"
   xmlns="http://www.w3.org/2000/svg"
   xmlns:svg="http://www.w3.org/2000/svg">
  <defs
     id="defs12">
    <inkscape:path-effect
       effect="powerclip"
       id="path-effect3850"
       is_visible="true"
       lpeversion="1"
       inverse="true"
       flatten="false"
       hide_clip="false"
       message="Use fill-rule evenodd on &lt;b&gt;fill and stroke&lt;/b&gt; dialog if no flatten result after convert clip to paths." />
    <clipPath
       clipPathUnits="userSpaceOnUse"
       id="clipPath3846">
      <path
         d="m 18,26.162323 v 20.38529 c 0,1.109032 0.811742,2.007871 1.930064,2.007871 h 31.81471 c 1.117162,0 1.930065,-0.90929 1.930065,-2.007871 V 26.162323 C 53.674839,24.94529 52.947871,24 51.744774,24 H 19.930064 C 18.680516,24 18,24.968516 18,26.162323 m 2.933419,1.775612 c 0,-0.491225 0.297291,-0.772258 0.772258,-0.772258 0.293807,0 11.854452,7.32542 12.55471,7.755097 l 1.80929,1.12529 c 0.573678,-0.384387 1.149678,-0.713032 1.744258,-1.111354 1.213549,-0.775742 12.011226,-7.769033 12.308517,-7.769033 0.476129,0 0.772258,0.281033 0.772258,0.772258 0,0.520258 -1.002194,1.037033 -1.654839,1.435355 -4.100516,2.499097 -8.199871,5.223484 -12.259742,7.815484 -0.236903,0.160258 -0.695613,0.502839 -1.039355,0.450581 -0.383226,-0.05923 -12.147097,-7.616903 -14.287355,-8.875742 -0.321677,-0.18929 -0.72,-0.362323 -0.72,-0.825678"
         fill="#FFF"
         id="path3848"
         style="display:none;opacity:0.48;fill:#ffffff;fill-opacity:1" />
      <path
         id="lpe_path-effect3850"
         style="opacity:0.48;fill:#ffffff;fill-opacity:1"
         class="powerclip"
         d="M -5,-5 H 77 V 77 H -5 Z m 23,31.162323 v 20.38529 c 0,1.109032 0.811742,2.007871 1.930064,2.007871 h 31.81471 c 1.117162,0 1.930065,-0.90929 1.930065,-2.007871 V 26.162323 C 53.674839,24.94529 52.947871,24 51.744774,24 H 19.930064 C 18.680516,24 18,24.968516 18,26.162323 m 2.933419,1.775612 c 0,0.463355 0.398323,0.636388 0.72,0.825678 2.140258,1.258839 13.904129,8.816512 14.287355,8.875742 0.343742,0.05226 0.802452,-0.290323 1.039355,-0.450581 4.059871,-2.592 8.159226,-5.316387 12.259742,-7.815484 0.652645,-0.398322 1.654839,-0.915097 1.654839,-1.435355 0,-0.491225 -0.296129,-0.772258 -0.772258,-0.772258 -0.297291,0 -11.094968,6.993291 -12.308517,7.769033 -0.59458,0.398322 -1.17058,0.726967 -1.744258,1.111354 l -1.80929,-1.12529 c -0.700258,-0.429677 -12.260903,-7.755097 -12.55471,-7.755097 -0.474967,0 -0.772258,0.281033 -0.772258,0.772258" />
    </clipPath>
  </defs>
  <sodipodi:namedview
     id="namedview10"
     pagecolor="#505050"
     bordercolor="#ffffff"
     borderopacity="1"
     inkscape:pageshadow="0"
     inkscape:pageopacity="0"
     inkscape:pagecheckerboard="1"
     showgrid="false"
     inkscape:zoom="8.2397582"
     inkscape:cx="18.143736"
     inkscape:cy="39.806993"
     inkscape:window-width="1920"
     inkscape:window-height="1015"
     inkscape:window-x="0"
     inkscape:window-y="0"
     inkscape:window-maximized="1"
     inkscape:current-layer="g6" />
  <g
     fill="none"
     fill-rule="evenodd"
     id="g6">
    <path
       d="m 36,72 v 0 C 55.882251,72 72,55.882251 72,36 v 0 C 72,16.117749 55.882251,0 36,0 V 0 C 16.117749,0 0,16.117749 0,36 v 0 c 0,19.882251 16.117749,36 36,36 z"
       fill="#000"
       id="path2"
       clip-path="url(#clipPath3846)"
       inkscape:path-effect="#path-effect3850"
       inkscape:original-d="M36,72 L36,72 C55.882251,72 72,55.882251 72,36 L72,36 C72,16.117749 55.882251,-3.65231026e-15 36,0 L36,0 C16.117749,3.65231026e-15 -2.4348735e-15,16.117749 0,36 L0,36 C2.4348735e-15,55.882251 16.117749,72 36,72 Z"
       style="fill:#242429;fill-opacity:1" />
  </g>
</svg>
