<?xml version="1.0" encoding="UTF-8" standalone="no"?>
<svg
   height="72"
   style="clip-rule:evenodd;fill-rule:evenodd;stroke-linejoin:round;stroke-miterlimit:2"
   version="1.1"
   viewBox="0 0 72 72"
   width="72"
   xml:space="preserve"
   id="svg4"
   sodipodi:docname="twitter-logo.svg"
   inkscape:version="1.1.2 (1:1.1+202202050950+0a00cf5339)"
   xmlns:inkscape="http://www.inkscape.org/namespaces/inkscape"
   xmlns:sodipodi="http://sodipodi.sourceforge.net/DTD/sodipodi-0.dtd"
   xmlns="http://www.w3.org/2000/svg"
   xmlns:svg="http://www.w3.org/2000/svg"><defs
     id="defs8" /><sodipodi:namedview
     id="namedview6"
     pagecolor="#505050"
     bordercolor="#666666"
     borderopacity="1.0"
     inkscape:pageshadow="2"
     inkscape:pageopacity="0"
     inkscape:pagecheckerboard="true"
     showgrid="false"
     inkscape:zoom="8.0322912"
     inkscape:cx="19.981845"
     inkscape:cy="39.590198"
     inkscape:window-width="1920"
     inkscape:window-height="1015"
     inkscape:window-x="0"
     inkscape:window-y="0"
     inkscape:window-maximized="1"
     inkscape:current-layer="svg4" /><path
     d="M 36,0 C 55.868906,0 72,16.131094 72,36 72,55.868906 55.868906,72 36,72 16.131094,72 0,55.868906 0,36 0,16.131094 16.131094,0 36,0 Z m -6.340922,55.147219 c 15.930422,0 24.640875,-13.200469 24.640875,-24.640735 0,-0.377156 0,-0.754312 -0.018,-1.113609 1.688203,-1.221188 3.160969,-2.747812 4.328297,-4.489875 -1.544484,0.682453 -3.214828,1.149469 -4.974891,1.364906 1.796063,-1.077609 3.160969,-2.765812 3.807563,-4.795172 -1.670344,0.98775 -3.520125,1.706063 -5.495766,2.101219 -1.580484,-1.688203 -3.825422,-2.729812 -6.321797,-2.729812 -4.777312,0 -8.656593,3.879281 -8.656593,8.656593 0,0.682453 0.07186,1.346907 0.233437,1.9755 -7.201828,-0.359156 -13.577625,-3.807421 -17.851922,-9.05175 -0.736453,1.275188 -1.167468,2.765813 -1.167468,4.346297 0,2.99925 1.526625,5.657344 3.861421,7.201828 -1.418906,-0.03586 -2.747953,-0.431015 -3.915281,-1.077468 v 0.107718 c 0,4.202579 2.98125,7.686703 6.950391,8.495016 -0.718313,0.197437 -1.490625,0.305297 -2.280797,0.305297 -0.556875,0 -1.095609,-0.05386 -1.634344,-0.161719 1.095469,3.448266 4.292297,5.944781 8.08186,6.0165 -2.963391,2.316938 -6.698954,3.699844 -10.757954,3.699844 -0.700453,0 -1.382906,-0.036 -2.065359,-0.125719 3.789563,2.478375 8.351297,3.915141 13.236328,3.915141 z"
     id="path2"
     style="stroke-width:0.140625;fill:#242429;opacity:1;fill-opacity:1" /></svg>
