<?xml version="1.0" encoding="UTF-8" standalone="no"?>
<svg
   height="72"
   style="clip-rule:evenodd;fill-rule:evenodd;stroke-linejoin:round;stroke-miterlimit:2"
   version="1.1"
   viewBox="0 0 72 72"
   width="72"
   xml:space="preserve"
   id="svg4"
   sodipodi:docname="youtube_logo.svg"
   inkscape:version="1.1.2 (1:1.1+202202050950+0a00cf5339)"
   xmlns:inkscape="http://www.inkscape.org/namespaces/inkscape"
   xmlns:sodipodi="http://sodipodi.sourceforge.net/DTD/sodipodi-0.dtd"
   xmlns="http://www.w3.org/2000/svg"
   xmlns:svg="http://www.w3.org/2000/svg"><defs
     id="defs8" /><sodipodi:namedview
     id="namedview6"
     pagecolor="#505050"
     bordercolor="#ffffff"
     borderopacity="1"
     inkscape:pageshadow="0"
     inkscape:pageopacity="0"
     inkscape:pagecheckerboard="1"
     showgrid="false"
     width="72px"
     inkscape:zoom="6.5546875"
     inkscape:cx="53.93087"
     inkscape:cy="31.885578"
     inkscape:window-width="1920"
     inkscape:window-height="1015"
     inkscape:window-x="0"
     inkscape:window-y="0"
     inkscape:window-maximized="1"
     inkscape:current-layer="svg4"
     inkscape:snap-others="false" /><path
     d="M 36,0 C 55.868906,0 72,16.131094 72,36 72,55.868906 55.868906,72 36,72 16.131094,72 0,55.868906 0,36 0,16.131094 16.131094,0 36,0 Z M 57.559922,25.168781 C 57.042422,23.232516 55.517766,21.708 53.581641,21.1905 50.071922,20.25 36,20.25 36,20.25 c 0,0 -14.071922,0 -17.581641,0.9405 -1.935703,0.5175 -3.460781,2.042016 -3.978281,3.978281 C 13.5,28.678078 13.5,36.000281 13.5,36.000281 c 0,0 0,7.321922 0.940078,10.830938 0.5175,1.936265 2.042578,3.461343 3.978281,3.978703 C 21.928078,51.75 36,51.75 36,51.75 c 0,0 14.071922,0 17.581641,-0.940078 1.936125,-0.517359 3.460781,-2.042438 3.978281,-3.978703 C 58.5,43.322203 58.5,36.000281 58.5,36.000281 c 0,0 0,-7.322203 -0.940078,-10.8315 z M 31.499859,42.750422 V 29.250141 L 43.191,36.000281 Z"
     id="path2"
     style="stroke-width:0.140625;fill:#242429;fill-opacity:1" /></svg>
